<svg width="80" height="80" viewBox="0 0 80 80" fill="none" xmlns="http://www.w3.org/2000/svg">
<path d="M39.9994 6.66602C21.6327 6.66602 6.66602 21.6327 6.66602 39.9994C6.66602 58.366 21.6327 73.3327 39.9994 73.3327C58.366 73.3327 73.3327 58.366 73.3327 39.9994C73.3327 21.6327 58.366 6.66602 39.9994 6.66602ZM49.2994 41.766L37.5327 53.5327C37.0327 54.0327 36.3993 54.266 35.766 54.266C35.1327 54.266 34.4993 54.0327 33.9993 53.5327C33.0327 52.566 33.0327 50.966 33.9993 49.9994L43.9994 39.9994L33.9993 29.9993C33.0327 29.0327 33.0327 27.4327 33.9993 26.466C34.966 25.4993 36.566 25.4993 37.5327 26.466L49.2994 38.2327C50.2994 39.1994 50.2994 40.7994 49.2994 41.766Z" fill="#ED1B24" fill-opacity="0.7"/>
</svg>
