<svg width="25" height="25" viewBox="0 0 25 25" fill="none" xmlns="http://www.w3.org/2000/svg">
<path d="M17.7463 0H7.26612C2.71385 0 0 2.7125 0 7.2625V17.725C0 22.2875 2.71385 25 7.26612 25H17.7338C22.2861 25 25 22.2875 25 17.7375V7.2625C25.0125 2.7125 22.2986 0 17.7463 0ZM17.2086 17.2C17.1335 18.2625 17.046 19.5875 14.6448 19.5875H10.3677C7.97898 19.5875 7.87893 18.2625 7.80389 17.2L7.4162 12.25C7.39118 11.925 7.50374 11.6125 7.71635 11.375C7.92895 11.1375 8.24161 11.0125 8.55426 11.0125H16.4582C16.7709 11.0125 17.0835 11.15 17.2961 11.375C17.5087 11.6125 17.6213 11.925 17.5963 12.2375L17.2086 17.2ZM18.5092 9.775C18.4842 9.775 18.4592 9.775 18.4342 9.775C17.1335 9.65 15.9454 9.5625 14.8074 9.5125C13.2816 9.4375 11.7559 9.4125 10.2176 9.475C9.46722 9.5125 8.70434 9.5625 7.95396 9.6375L6.59078 9.775C6.56577 9.775 6.52825 9.775 6.50324 9.775C6.06552 9.775 5.69034 9.45 5.65282 9C5.60279 8.5375 5.95297 8.1125 6.4157 8.075L7.77888 7.9375C8.31664 7.8875 8.84191 7.85 9.37967 7.825L9.47972 7.2375C9.57977 6.6125 9.76737 5.4125 11.6433 5.4125H13.3817C15.2701 5.4125 15.4577 6.65 15.5452 7.25L15.6453 7.85C16.5833 7.9 17.5462 7.975 18.5968 8.075C19.072 8.125 19.4097 8.5375 19.3722 9.0125C19.3221 9.45 18.9469 9.775 18.5092 9.775Z" fill="#ED1B24" fill-opacity="0.5"/>
</svg>
