<svg width="124" height="54" viewBox="0 0 124 54" fill="none" xmlns="http://www.w3.org/2000/svg">
<g filter="url(#filter0_d_0_378)">
<rect x="2" width="120" height="50" fill="white"/>
<circle cx="26" cy="25" r="20" fill="url(#paint0_linear_0_378)"/>
<path d="M33.4482 31.1165L34.3366 25.4715H28.7789V21.81C28.7789 20.2653 29.5538 18.7587 32.0431 18.7587H34.5714V13.9528C34.5714 13.9528 32.2779 13.5714 30.0861 13.5714C25.5069 13.5714 22.5167 16.2756 22.5167 21.1692V25.4715H17.4286V31.1165H22.5167V44.7635C23.5382 44.9199 24.5832 45 25.6478 45C26.7124 45 27.7574 44.9199 28.7789 44.7635V31.1165H33.4482Z" fill="white"/>
<path d="M49.3158 31V20.8182H55.8385V22.3643H51.1602V25.1286H55.3911V26.6747H51.1602V31H49.3158ZM59.5684 31.1541C59.0845 31.1541 58.6487 31.0679 58.2609 30.8956C57.8765 30.7199 57.5715 30.4614 57.3461 30.12C57.1241 29.7786 57.0131 29.3577 57.0131 28.8572C57.0131 28.4264 57.0926 28.0701 57.2517 27.7884C57.4108 27.5066 57.6279 27.2812 57.903 27.1122C58.1781 26.9432 58.488 26.8156 58.8327 26.7294C59.1807 26.6399 59.5403 26.5753 59.9115 26.5355C60.3589 26.4891 60.7219 26.4477 61.0003 26.4112C61.2787 26.3714 61.4809 26.3118 61.6068 26.2322C61.7361 26.1494 61.8007 26.0218 61.8007 25.8494V25.8196C61.8007 25.4451 61.6897 25.1551 61.4676 24.9496C61.2455 24.7441 60.9257 24.6413 60.5081 24.6413C60.0673 24.6413 59.7176 24.7375 59.4591 24.9297C59.2039 25.1219 59.0315 25.349 58.942 25.6108L57.2616 25.3722C57.3942 24.9081 57.613 24.5204 57.9179 24.2088C58.2228 23.8939 58.5957 23.6586 59.0365 23.5028C59.4773 23.3438 59.9645 23.2642 60.4981 23.2642C60.866 23.2642 61.2323 23.3073 61.5969 23.3935C61.9614 23.4796 62.2945 23.6222 62.5961 23.821C62.8978 24.0166 63.1397 24.2834 63.322 24.6214C63.5076 24.9595 63.6004 25.3821 63.6004 25.8892V31H61.8703V29.951H61.8106C61.7013 30.1631 61.5471 30.362 61.3483 30.5476C61.1527 30.7299 60.9058 30.8774 60.6075 30.9901C60.3125 31.0994 59.9662 31.1541 59.5684 31.1541ZM60.0358 29.8317C60.397 29.8317 60.7103 29.7604 60.9754 29.6179C61.2406 29.4721 61.4444 29.2798 61.5869 29.0412C61.7327 28.8026 61.8057 28.5424 61.8057 28.2607V27.3608C61.7493 27.4072 61.6532 27.4503 61.5173 27.4901C61.3847 27.5298 61.2356 27.5646 61.0699 27.5945C60.9041 27.6243 60.7401 27.6508 60.5777 27.674C60.4153 27.6972 60.2744 27.7171 60.1551 27.7337C59.8866 27.7701 59.6463 27.8298 59.4342 27.9126C59.2221 27.9955 59.0547 28.1115 58.9321 28.2607C58.8095 28.4065 58.7481 28.5954 58.7481 28.8274C58.7481 29.1589 58.8691 29.4091 59.1111 29.5781C59.353 29.7472 59.6613 29.8317 60.0358 29.8317ZM68.741 31.1491C67.9787 31.1491 67.3241 30.9818 66.7773 30.647C66.2337 30.3123 65.8144 29.8499 65.5194 29.2599C65.2278 28.6667 65.0819 27.9839 65.0819 27.2116C65.0819 26.4361 65.2311 25.7517 65.5294 25.1584C65.8277 24.5618 66.2486 24.0978 66.7922 23.7663C67.339 23.4316 67.9854 23.2642 68.7311 23.2642C69.3509 23.2642 69.8994 23.3786 70.3767 23.6072C70.8573 23.8326 71.2401 24.1525 71.5251 24.5668C71.8102 24.9777 71.9726 25.4583 72.0123 26.0085H70.2922C70.2226 25.6406 70.0568 25.334 69.795 25.0888C69.5365 24.8402 69.1901 24.7159 68.7559 24.7159C68.3881 24.7159 68.0649 24.8153 67.7865 25.0142C67.5081 25.2098 67.291 25.4915 67.1352 25.8594C66.9827 26.2273 66.9065 26.6681 66.9065 27.1818C66.9065 27.7022 66.9827 28.1496 67.1352 28.5241C67.2877 28.8954 67.5015 29.1821 67.7765 29.3842C68.055 29.5831 68.3814 29.6825 68.7559 29.6825C69.0211 29.6825 69.2581 29.6328 69.4669 29.5334C69.679 29.4306 69.8563 29.2831 69.9988 29.0909C70.1414 28.8987 70.2391 28.665 70.2922 28.3899H72.0123C71.9693 28.9302 71.8102 29.4091 71.5351 29.8267C71.26 30.241 70.8854 30.5658 70.4115 30.8011C69.9375 31.0331 69.3807 31.1491 68.741 31.1491ZM76.8708 31.1491C76.1052 31.1491 75.444 30.9901 74.8872 30.6719C74.3337 30.3504 73.9078 29.8963 73.6095 29.3097C73.3112 28.7197 73.162 28.0253 73.162 27.2266C73.162 26.4411 73.3112 25.7517 73.6095 25.1584C73.9111 24.5618 74.332 24.0978 74.8722 23.7663C75.4125 23.4316 76.0472 23.2642 76.7764 23.2642C77.247 23.2642 77.6911 23.3404 78.1088 23.4929C78.5297 23.642 78.9009 23.8741 79.2224 24.1889C79.5472 24.5038 79.8024 24.9048 79.988 25.392C80.1736 25.8759 80.2664 26.4527 80.2664 27.1222V27.674H74.0072V26.4609H78.5413C78.538 26.1162 78.4634 25.8097 78.3176 25.5412C78.1717 25.2694 77.9679 25.0556 77.7061 24.8999C77.4475 24.7441 77.1459 24.6662 76.8012 24.6662C76.4333 24.6662 76.1102 24.7557 75.8318 24.9347C75.5534 25.1103 75.3363 25.3423 75.1805 25.6307C75.028 25.9157 74.9501 26.2289 74.9468 26.5703V27.6293C74.9468 28.0734 75.028 28.4545 75.1904 28.7727C75.3528 29.0876 75.5799 29.3295 75.8715 29.4986C76.1632 29.6643 76.5046 29.7472 76.8957 29.7472C77.1575 29.7472 77.3945 29.7107 77.6066 29.6378C77.8187 29.5616 78.0027 29.4505 78.1585 29.3047C78.3142 29.1589 78.4319 28.9782 78.5115 28.7628L80.1919 28.9517C80.0858 29.3958 79.8836 29.7836 79.5853 30.1151C79.2903 30.4432 78.9125 30.6984 78.4518 30.8807C77.9911 31.0597 77.4641 31.1491 76.8708 31.1491ZM81.8685 31V20.8182H83.6682V24.6264H83.7428C83.8356 24.4408 83.9665 24.2436 84.1356 24.0348C84.3046 23.8227 84.5333 23.642 84.8216 23.4929C85.11 23.3404 85.4779 23.2642 85.9253 23.2642C86.5153 23.2642 87.0473 23.415 87.5212 23.7166C87.9985 24.0149 88.3763 24.4574 88.6547 25.044C88.9365 25.6274 89.0773 26.3433 89.0773 27.1918C89.0773 28.0303 88.9398 28.7429 88.6647 29.3295C88.3896 29.9162 88.0151 30.3636 87.5411 30.6719C87.0671 30.9801 86.5302 31.1342 85.9303 31.1342C85.4928 31.1342 85.1299 31.0613 84.8415 30.9155C84.5532 30.7696 84.3212 30.594 84.1455 30.3885C83.9732 30.1797 83.8389 29.9825 83.7428 29.7969H83.6384V31H81.8685ZM83.6334 27.1818C83.6334 27.6757 83.703 28.1082 83.8422 28.4794C83.9848 28.8506 84.1886 29.1406 84.4537 29.3494C84.7222 29.5549 85.047 29.6577 85.4282 29.6577C85.8259 29.6577 86.159 29.5516 86.4275 29.3395C86.6959 29.1241 86.8981 28.8307 87.034 28.4595C87.1732 28.085 87.2428 27.6591 87.2428 27.1818C87.2428 26.7079 87.1749 26.2869 87.039 25.919C86.9031 25.5511 86.7009 25.2628 86.4324 25.054C86.164 24.8452 85.8292 24.7408 85.4282 24.7408C85.0437 24.7408 84.7172 24.8419 84.4488 25.044C84.1803 25.2462 83.9765 25.5296 83.8373 25.8942C83.7014 26.2588 83.6334 26.688 83.6334 27.1818ZM93.9383 31.1491C93.1926 31.1491 92.5463 30.9851 91.9994 30.657C91.4525 30.3288 91.0283 29.8698 90.7267 29.2798C90.4284 28.6899 90.2792 28.0005 90.2792 27.2116C90.2792 26.4228 90.4284 25.7318 90.7267 25.1385C91.0283 24.5452 91.4525 24.0845 91.9994 23.7564C92.5463 23.4283 93.1926 23.2642 93.9383 23.2642C94.684 23.2642 95.3303 23.4283 95.8772 23.7564C96.4241 24.0845 96.8467 24.5452 97.145 25.1385C97.4466 25.7318 97.5974 26.4228 97.5974 27.2116C97.5974 28.0005 97.4466 28.6899 97.145 29.2798C96.8467 29.8698 96.4241 30.3288 95.8772 30.657C95.3303 30.9851 94.684 31.1491 93.9383 31.1491ZM93.9482 29.7074C94.3526 29.7074 94.6907 29.5964 94.9624 29.3743C95.2342 29.1489 95.4364 28.8473 95.569 28.4695C95.7049 28.0916 95.7728 27.6707 95.7728 27.2067C95.7728 26.7393 95.7049 26.3168 95.569 25.9389C95.4364 25.5578 95.2342 25.2545 94.9624 25.0291C94.6907 24.8037 94.3526 24.6911 93.9482 24.6911C93.5339 24.6911 93.1892 24.8037 92.9142 25.0291C92.6424 25.2545 92.4385 25.5578 92.3026 25.9389C92.1701 26.3168 92.1038 26.7393 92.1038 27.2067C92.1038 27.6707 92.1701 28.0916 92.3026 28.4695C92.4385 28.8473 92.6424 29.1489 92.9142 29.3743C93.1892 29.5964 93.5339 29.7074 93.9482 29.7074ZM102.456 31.1491C101.71 31.1491 101.064 30.9851 100.517 30.657C99.9701 30.3288 99.5458 29.8698 99.2442 29.2798C98.9459 28.6899 98.7968 28.0005 98.7968 27.2116C98.7968 26.4228 98.9459 25.7318 99.2442 25.1385C99.5458 24.5452 99.9701 24.0845 100.517 23.7564C101.064 23.4283 101.71 23.2642 102.456 23.2642C103.202 23.2642 103.848 23.4283 104.395 23.7564C104.942 24.0845 105.364 24.5452 105.663 25.1385C105.964 25.7318 106.115 26.4228 106.115 27.2116C106.115 28.0005 105.964 28.6899 105.663 29.2798C105.364 29.8698 104.942 30.3288 104.395 30.657C103.848 30.9851 103.202 31.1491 102.456 31.1491ZM102.466 29.7074C102.87 29.7074 103.208 29.5964 103.48 29.3743C103.752 29.1489 103.954 28.8473 104.087 28.4695C104.222 28.0916 104.29 27.6707 104.29 27.2067C104.29 26.7393 104.222 26.3168 104.087 25.9389C103.954 25.5578 103.752 25.2545 103.48 25.0291C103.208 24.8037 102.87 24.6911 102.466 24.6911C102.052 24.6911 101.707 24.8037 101.432 25.0291C101.16 25.2545 100.956 25.5578 100.82 25.9389C100.688 26.3168 100.621 26.7393 100.621 27.2067C100.621 27.6707 100.688 28.0916 100.82 28.4695C100.956 28.8473 101.16 29.1489 101.432 29.3743C101.707 29.5964 102.052 29.7074 102.466 29.7074ZM109.283 28.6037L109.278 26.4311H109.566L112.311 23.3636H114.414L111.038 27.1222H110.665L109.283 28.6037ZM107.642 31V20.8182H109.442V31H107.642ZM112.435 31L109.949 27.5249L111.162 26.2571L114.588 31H112.435Z" fill="black"/>
</g>
<defs>
<filter id="filter0_d_0_378" x="0" y="0" width="124" height="54" filterUnits="userSpaceOnUse" color-interpolation-filters="sRGB">
<feFlood flood-opacity="0" result="BackgroundImageFix"/>
<feColorMatrix in="SourceAlpha" type="matrix" values="0 0 0 0 0 0 0 0 0 0 0 0 0 0 0 0 0 0 127 0" result="hardAlpha"/>
<feOffset dy="2"/>
<feGaussianBlur stdDeviation="1"/>
<feComposite in2="hardAlpha" operator="out"/>
<feColorMatrix type="matrix" values="0 0 0 0 0 0 0 0 0 0 0 0 0 0 0 0 0 0 0.2 0"/>
<feBlend mode="normal" in2="BackgroundImageFix" result="effect1_dropShadow_0_378"/>
<feBlend mode="normal" in="SourceGraphic" in2="effect1_dropShadow_0_378" result="shape"/>
</filter>
<linearGradient id="paint0_linear_0_378" x1="26" y1="5" x2="26" y2="44.8814" gradientUnits="userSpaceOnUse">
<stop stop-color="#18ACFE"/>
<stop offset="1" stop-color="#0163E0"/>
</linearGradient>
</defs>
</svg>
