<svg width="124" height="54" viewBox="0 0 124 54" fill="none" xmlns="http://www.w3.org/2000/svg">
<g filter="url(#filter0_d_0_370)">
<rect x="2" width="120" height="50" fill="white"/>
<path d="M42 25.3998C42 23.9198 41.8775 22.8398 41.6122 21.7198H24.3673V28.3998H34.4897C34.2857 30.0598 33.1837 32.5599 30.7346 34.2398L30.7003 34.4634L36.1528 38.6029L36.5306 38.6399C39.9999 35.4998 42 30.8798 42 25.3998Z" fill="#4285F4"/>
<path d="M24.3663 43.0002C29.3254 43.0002 33.4886 41.4001 36.5296 38.6402L30.7336 34.24C29.1826 35.3001 27.101 36.0401 24.3663 36.0401C19.5092 36.0401 15.3868 32.9001 13.9173 28.5601L13.7019 28.578L8.03227 32.878L7.95813 33.08C10.9785 38.9601 17.1826 43.0002 24.3663 43.0002Z" fill="#34A853"/>
<path d="M13.9183 28.5603C13.5306 27.4403 13.3062 26.2402 13.3062 25.0003C13.3062 23.7602 13.5306 22.5603 13.8979 21.4403L13.8876 21.2017L8.14696 16.8326L7.95914 16.9202C6.71429 19.3602 6 22.1003 6 25.0003C6 27.9003 6.71429 30.6402 7.95914 33.0803L13.9183 28.5603Z" fill="#FBBC05"/>
<path d="M24.3664 13.96C27.8154 13.96 30.1419 15.42 31.4684 16.6401L36.6521 11.68C33.4685 8.78001 29.3256 7 24.3664 7C17.1826 7 10.9785 11.04 7.95813 16.92L13.8969 21.44C15.3868 17.1 19.5093 13.96 24.3664 13.96Z" fill="#EB4335"/>
<path d="M55.8253 24.0696C55.7424 23.8011 55.6281 23.5608 55.4822 23.3487C55.3397 23.1333 55.1674 22.9493 54.9652 22.7969C54.7663 22.6444 54.5376 22.5301 54.2791 22.4538C54.0206 22.3743 53.7389 22.3345 53.4339 22.3345C52.8871 22.3345 52.3999 22.4721 51.9723 22.7472C51.5447 23.0223 51.2083 23.4266 50.9631 23.9602C50.7211 24.4905 50.6001 25.1368 50.6001 25.8991C50.6001 26.6681 50.7211 27.3194 50.9631 27.853C51.205 28.3866 51.5414 28.7926 51.9723 29.071C52.4032 29.3461 52.9036 29.4837 53.4737 29.4837C53.9908 29.4837 54.4382 29.3842 54.8161 29.1854C55.1972 28.9865 55.4905 28.7048 55.696 28.3402C55.9015 27.9723 56.0043 27.5414 56.0043 27.0476L56.4219 27.1122H53.6577V25.6705H57.7891V26.8935C57.7891 27.7652 57.6035 28.5192 57.2322 29.1555C56.861 29.7919 56.3506 30.2824 55.701 30.6271C55.0514 30.9685 54.3056 31.1392 53.4638 31.1392C52.5258 31.1392 51.7022 30.9287 50.9929 30.5078C50.2869 30.0836 49.7351 29.482 49.3374 28.7031C48.9429 27.9209 48.7457 26.9929 48.7457 25.919C48.7457 25.0971 48.8617 24.3629 49.0938 23.7166C49.3291 23.0703 49.6572 22.5218 50.0781 22.071C50.4991 21.617 50.9929 21.2723 51.5597 21.0369C52.1264 20.7983 52.7429 20.679 53.4091 20.679C53.9725 20.679 54.4979 20.7618 54.9851 20.9276C55.4723 21.09 55.9048 21.322 56.2827 21.6236C56.6638 21.9252 56.977 22.2831 57.2223 22.6974C57.4676 23.1117 57.6283 23.5691 57.7045 24.0696H55.8253ZM62.824 31.1491C62.0783 31.1491 61.432 30.9851 60.8851 30.657C60.3382 30.3288 59.914 29.8698 59.6124 29.2798C59.3141 28.6899 59.165 28.0005 59.165 27.2116C59.165 26.4228 59.3141 25.7318 59.6124 25.1385C59.914 24.5452 60.3382 24.0845 60.8851 23.7564C61.432 23.4283 62.0783 23.2642 62.824 23.2642C63.5698 23.2642 64.2161 23.4283 64.763 23.7564C65.3098 24.0845 65.7324 24.5452 66.0307 25.1385C66.3323 25.7318 66.4831 26.4228 66.4831 27.2116C66.4831 28.0005 66.3323 28.6899 66.0307 29.2798C65.7324 29.8698 65.3098 30.3288 64.763 30.657C64.2161 30.9851 63.5698 31.1491 62.824 31.1491ZM62.834 29.7074C63.2383 29.7074 63.5764 29.5964 63.8482 29.3743C64.12 29.1489 64.3221 28.8473 64.4547 28.4695C64.5906 28.0916 64.6586 27.6707 64.6586 27.2067C64.6586 26.7393 64.5906 26.3168 64.4547 25.9389C64.3221 25.5578 64.12 25.2545 63.8482 25.0291C63.5764 24.8037 63.2383 24.6911 62.834 24.6911C62.4197 24.6911 62.075 24.8037 61.7999 25.0291C61.5281 25.2545 61.3243 25.5578 61.1884 25.9389C61.0558 26.3168 60.9895 26.7393 60.9895 27.2067C60.9895 27.6707 61.0558 28.0916 61.1884 28.4695C61.3243 28.8473 61.5281 29.1489 61.7999 29.3743C62.075 29.5964 62.4197 29.7074 62.834 29.7074ZM71.3416 31.1491C70.5959 31.1491 69.9496 30.9851 69.4027 30.657C68.8558 30.3288 68.4316 29.8698 68.13 29.2798C67.8317 28.6899 67.6825 28.0005 67.6825 27.2116C67.6825 26.4228 67.8317 25.7318 68.13 25.1385C68.4316 24.5452 68.8558 24.0845 69.4027 23.7564C69.9496 23.4283 70.5959 23.2642 71.3416 23.2642C72.0874 23.2642 72.7337 23.4283 73.2805 23.7564C73.8274 24.0845 74.25 24.5452 74.5483 25.1385C74.8499 25.7318 75.0007 26.4228 75.0007 27.2116C75.0007 28.0005 74.8499 28.6899 74.5483 29.2798C74.25 29.8698 73.8274 30.3288 73.2805 30.657C72.7337 30.9851 72.0874 31.1491 71.3416 31.1491ZM71.3516 29.7074C71.7559 29.7074 72.094 29.5964 72.3658 29.3743C72.6375 29.1489 72.8397 28.8473 72.9723 28.4695C73.1082 28.0916 73.1761 27.6707 73.1761 27.2067C73.1761 26.7393 73.1082 26.3168 72.9723 25.9389C72.8397 25.5578 72.6375 25.2545 72.3658 25.0291C72.094 24.8037 71.7559 24.6911 71.3516 24.6911C70.9373 24.6911 70.5926 24.8037 70.3175 25.0291C70.0457 25.2545 69.8419 25.5578 69.706 25.9389C69.5734 26.3168 69.5071 26.7393 69.5071 27.2067C69.5071 27.6707 69.5734 28.0916 69.706 28.4695C69.8419 28.8473 70.0457 29.1489 70.3175 29.3743C70.5926 29.5964 70.9373 29.7074 71.3516 29.7074ZM79.8493 34.0227C79.2029 34.0227 78.6478 33.9349 78.1838 33.7592C77.7198 33.5869 77.3469 33.3549 77.0652 33.0632C76.7834 32.7715 76.5879 32.4484 76.4785 32.0938L78.0993 31.701C78.1722 31.8501 78.2782 31.9976 78.4174 32.1435C78.5566 32.2926 78.7439 32.4152 78.9792 32.5114C79.2179 32.6108 79.5178 32.6605 79.8791 32.6605C80.3895 32.6605 80.8121 32.5362 81.1468 32.2876C81.4816 32.0424 81.649 31.638 81.649 31.0746V29.6278H81.5595C81.4667 29.8134 81.3308 30.004 81.1518 30.1996C80.9761 30.3951 80.7425 30.5592 80.4508 30.6918C80.1625 30.8243 79.7995 30.8906 79.362 30.8906C78.7754 30.8906 78.2434 30.7531 77.7662 30.478C77.2922 30.1996 76.9144 29.7853 76.6326 29.2351C76.3542 28.6816 76.215 27.9889 76.215 27.157C76.215 26.3184 76.3542 25.6108 76.6326 25.0341C76.9144 24.4541 77.2939 24.0149 77.7711 23.7166C78.2484 23.415 78.7804 23.2642 79.367 23.2642C79.8145 23.2642 80.1824 23.3404 80.4707 23.4929C80.7624 23.642 80.9944 23.8227 81.1667 24.0348C81.3391 24.2436 81.47 24.4408 81.5595 24.6264H81.6589V23.3636H83.4338V31.1243C83.4338 31.7772 83.278 32.3175 82.9664 32.745C82.6549 33.1726 82.229 33.4924 81.6887 33.7045C81.1485 33.9167 80.5353 34.0227 79.8493 34.0227ZM79.8642 29.4787C80.2453 29.4787 80.5701 29.3859 80.8386 29.2003C81.1071 29.0147 81.3109 28.7479 81.4501 28.3999C81.5893 28.0518 81.6589 27.6342 81.6589 27.147C81.6589 26.6664 81.5893 26.2455 81.4501 25.8842C81.3142 25.523 81.112 25.2429 80.8436 25.044C80.5784 24.8419 80.252 24.7408 79.8642 24.7408C79.4631 24.7408 79.1284 24.8452 78.8599 25.054C78.5914 25.2628 78.3893 25.5495 78.2534 25.9141C78.1175 26.2753 78.0495 26.6863 78.0495 27.147C78.0495 27.6143 78.1175 28.0237 78.2534 28.375C78.3926 28.723 78.5964 28.9948 78.8649 29.1903C79.1367 29.3826 79.4698 29.4787 79.8642 29.4787ZM87.0779 20.8182V31H85.2782V20.8182H87.0779ZM92.3093 31.1491C91.5437 31.1491 90.8825 30.9901 90.3256 30.6719C89.7721 30.3504 89.3462 29.8963 89.0479 29.3097C88.7496 28.7197 88.6005 28.0253 88.6005 27.2266C88.6005 26.4411 88.7496 25.7517 89.0479 25.1584C89.3496 24.5618 89.7705 24.0978 90.3107 23.7663C90.851 23.4316 91.4857 23.2642 92.2148 23.2642C92.6855 23.2642 93.1296 23.3404 93.5472 23.4929C93.9682 23.642 94.3394 23.8741 94.6609 24.1889C94.9857 24.5038 95.2409 24.9048 95.4265 25.392C95.6121 25.8759 95.7049 26.4527 95.7049 27.1222V27.674H89.4457V26.4609H93.9798C93.9764 26.1162 93.9019 25.8097 93.756 25.5412C93.6102 25.2694 93.4064 25.0556 93.1445 24.8999C92.886 24.7441 92.5844 24.6662 92.2397 24.6662C91.8718 24.6662 91.5487 24.7557 91.2702 24.9347C90.9918 25.1103 90.7747 25.3423 90.619 25.6307C90.4665 25.9157 90.3886 26.2289 90.3853 26.5703V27.6293C90.3853 28.0734 90.4665 28.4545 90.6289 28.7727C90.7913 29.0876 91.0183 29.3295 91.31 29.4986C91.6017 29.6643 91.9431 29.7472 92.3342 29.7472C92.596 29.7472 92.833 29.7107 93.0451 29.6378C93.2572 29.5616 93.4412 29.4505 93.5969 29.3047C93.7527 29.1589 93.8704 28.9782 93.9499 28.7628L95.6303 28.9517C95.5243 29.3958 95.3221 29.7836 95.0238 30.1151C94.7288 30.4432 94.351 30.6984 93.8903 30.8807C93.4296 31.0597 92.9026 31.1491 92.3093 31.1491Z" fill="black"/>
</g>
<defs>
<filter id="filter0_d_0_370" x="0" y="0" width="124" height="54" filterUnits="userSpaceOnUse" color-interpolation-filters="sRGB">
<feFlood flood-opacity="0" result="BackgroundImageFix"/>
<feColorMatrix in="SourceAlpha" type="matrix" values="0 0 0 0 0 0 0 0 0 0 0 0 0 0 0 0 0 0 127 0" result="hardAlpha"/>
<feOffset dy="2"/>
<feGaussianBlur stdDeviation="1"/>
<feComposite in2="hardAlpha" operator="out"/>
<feColorMatrix type="matrix" values="0 0 0 0 0 0 0 0 0 0 0 0 0 0 0 0 0 0 0.2 0"/>
<feBlend mode="normal" in2="BackgroundImageFix" result="effect1_dropShadow_0_370"/>
<feBlend mode="normal" in="SourceGraphic" in2="effect1_dropShadow_0_370" result="shape"/>
</filter>
</defs>
</svg>
