<svg width="150" height="150" viewBox="0 0 150 150" fill="none" xmlns="http://www.w3.org/2000/svg">
<path d="M74.9995 12.4999C40.562 12.4999 12.4995 40.5624 12.4995 74.9999C12.4995 109.437 40.562 137.5 74.9995 137.5C109.437 137.5 137.5 109.437 137.5 74.9999C137.5 40.5624 109.437 12.4999 74.9995 12.4999ZM104.875 60.6249L69.437 96.0624C68.562 96.9374 67.3745 97.4374 66.1245 97.4374C64.8745 97.4374 63.687 96.9374 62.812 96.0624L45.1245 78.3749C43.312 76.5624 43.312 73.5624 45.1245 71.7499C46.937 69.9374 49.937 69.9374 51.7495 71.7499L66.1245 86.1249L98.2495 53.9999C100.062 52.1874 103.062 52.1874 104.875 53.9999C106.687 55.8124 106.687 58.7499 104.875 60.6249Z" fill="#ED1B24"/>
</svg>
